<?xml version="1.0" encoding="UTF-8" standalone="no"?>
<!-- Created with Inkscape (http://www.inkscape.org/) -->
<svg
   xmlns:svg="http://www.w3.org/2000/svg"
   xmlns="http://www.w3.org/2000/svg"
   version="1.0"
   id="svg2174">
  <defs
     id="defs2176" />
  <g
     transform="translate(2.9388092,-178.48279)"
     id="layer1">
    <path
       d="M 157.23577,283.42757 C 142.80496,280.51432 132.65869,286.28847 129.67484,288.43994 C 126.69099,290.59138 144.45158,360.62998 177.91892,489.36217 L 230.88531,693.09744 L 216.45304,701.46847 C 194.08416,714.44296 150.53935,725.25787 120.03434,725.41535 C 88.105805,725.5802 34.612368,713.50813 13.640493,701.40504 L -0.82917818,693.0544 L 54.770938,487.35189 C 85.350931,374.2155 112.45081,296.74943 114.99273,292.40588 C 119.37607,284.91566 121.62397,267.43916 160.81758,267.89055 C 189.67072,268.22288 223.37353,269.44714 275.51263,268.57074 C 328.1729,267.68561 350.9342,260.99679 353.29284,260.99679 C 355.65146,260.99679 358.82726,247.12072 360.35016,237.76084 C 361.87308,228.40091 364.99211,193.22158 367.28126,182.38378 L 385.03628,180.59242 C 387.04385,190.44497 379.98881,225.54724 381.5104,235.79816 L 384.27697,260.65423 C 418.19132,270.83056 449.4592,270.27547 482.76225,270.40345 C 529.9158,270.84855 554.58799,273.96602 581.10752,274.14133 C 614.96088,274.3651 622.54669,284.91173 626.93241,292.40588 C 629.47427,296.74943 656.57408,374.2155 687.15417,487.35189 L 742.7543,693.0544 L 728.28459,701.40504 C 707.31274,713.50813 653.81927,725.5802 621.89076,725.41535 C 591.38572,725.25787 547.84092,714.44296 525.47203,701.46847 L 511.03983,693.09744 L 564.00615,489.36217 C 598.41423,357.01133 615.27497,303.05684 612.12755,300.78744 C 608.98009,298.51802 600.32771,280.29507 587.43305,283.36349 L 157.23577,283.42757 z M 219.65283,682.02024 C 220.6396,671.01744 121.41211,320.02836 117.46936,320.01958 C 113.53311,320.01083 12.792311,672.17429 13.611779,683.2765 C 13.720828,684.7544 54.177889,691.31191 115.06546,690.92531 C 172.45295,690.55717 219.52031,683.49814 219.65283,682.02024 z M 731.40429,682.02024 C 732.22376,670.91802 628.39197,320.01083 624.45575,320.01958 C 620.51294,320.02836 521.2855,671.01744 522.27225,682.02024 C 522.40483,683.49814 569.46909,690.92531 626.85961,690.92531 C 684.25012,690.92531 731.29528,683.49814 731.40429,682.02024 z "
       style="fill:#000000;fill-opacity:1;stroke:#000000;stroke-width:4.21926212;stroke-opacity:1"
       id="path1316" />
    <path
       d="M 523.33994,682.47403 C 575.26879,688.531 598.76039,695.36118 684.69025,687.88662 L 729.2007,683.24726 L 733.52807,680.92757 C 711.40504,667.71524 682.88497,667.5203 653.78024,665.84961 C 608.68376,664.49127 564.43728,664.13297 525.19453,679.76774 L 523.33994,682.47403 z "
       style="fill:#000000;fill-opacity:1;fill-rule:evenodd;stroke:#000000;stroke-width:3.9313817px;stroke-linecap:butt;stroke-linejoin:miter;stroke-opacity:1"
       id="path4106" />
    <path
       d="M 10.233545,683.22893 C 62.162395,689.28589 85.654025,696.11608 171.58389,688.64152 L 216.09433,684.00215 L 220.4217,681.68246 C 198.29867,668.47014 169.77858,668.27519 140.67386,666.60452 C 95.5774,665.24616 51.330928,664.88786 12.088142,680.52263 L 10.233545,683.22893 z "
       style="fill:#000000;fill-opacity:1;fill-rule:evenodd;stroke:#000000;stroke-width:3.9313817px;stroke-linecap:butt;stroke-linejoin:miter;stroke-opacity:1"
       id="path5077" />
  </g>
</svg>
