<svg xmlns="http://www.w3.org/2000/svg" version="1.0" viewBox="0 0 800 800"><path d="M157.236 283.428c-14.431-2.914-24.577 2.86-27.561 5.012-2.984 2.151 14.777 72.19 48.244 200.922l52.966 203.735-14.432 8.371c-22.369 12.975-65.914 23.79-96.419 23.947-31.928.165-85.422-11.907-106.394-24.01l-14.47-8.35 55.6-205.703c30.58-113.136 57.68-190.603 60.223-194.946 4.383-7.49 6.631-24.967 45.825-24.515 28.853.332 62.556 1.556 114.695.68 52.66-.885 75.421-7.574 77.78-7.574 2.358 0 5.534-13.876 7.057-23.236 1.523-9.36 4.642-44.54 6.931-55.377l17.755-1.792c2.008 9.853-5.047 44.955-3.526 55.206l2.767 24.856c33.914 10.177 65.182 9.621 98.485 9.75 47.154.445 71.826 3.562 98.346 3.737 33.853.224 41.439 10.77 45.824 18.265 2.542 4.343 29.642 81.81 60.222 194.946l55.6 205.702-14.47 8.351c-20.971 12.103-74.465 24.175-106.393 24.01-30.505-.157-74.05-10.972-96.419-23.947l-14.432-8.37 52.966-203.736c34.408-132.35 51.269-186.305 48.122-188.575-3.148-2.269-11.8-20.492-24.695-17.424l-430.197.065zm62.417 398.592c.987-11.003-98.24-361.992-102.184-362-3.936-.01-104.677 352.154-103.857 363.257.109 1.477 40.566 8.035 101.453 7.648 57.388-.368 104.455-7.427 104.588-8.905zm511.751 0c.82-11.102-103.012-362.01-106.948-362-3.943.008-103.17 350.997-102.184 362 .133 1.478 47.197 8.905 104.588 8.905 57.39 0 104.435-7.427 104.544-8.905z" style="fill:#000;fill-opacity:1;stroke:#000;stroke-width:4.21926212;stroke-opacity:1" transform="translate(2.939 -178.483)"/><path d="M523.34 682.474c51.929 6.057 75.42 12.887 161.35 5.413l44.51-4.64 4.328-2.32c-22.123-13.212-50.643-13.407-79.748-15.077-45.096-1.359-89.343-1.717-128.585 13.918l-1.855 2.706zM10.234 683.229c51.928 6.057 75.42 12.887 161.35 5.413l44.51-4.64 4.328-2.32c-22.123-13.212-50.643-13.407-79.748-15.077-45.097-1.359-89.343-1.717-128.586 13.918l-1.854 2.706z" style="fill:#000;fill-opacity:1;fill-rule:evenodd;stroke:#000;stroke-width:3.9313817px;stroke-linecap:butt;stroke-linejoin:miter;stroke-opacity:1" transform="translate(2.939 -178.483)"/></svg>